{
  "accessors": [
    {
      "bufferView": 2,
      "componentType": 5126,
      "count": 649,
      "max": [
        0.4919823706150055,
        0.9870912432670593,
        0.05457775294780731
      ],
      "min": [
        -0.4919823706150055,
        -0.9895026087760925,
        -0.06324107199907303
      ],
      "type": "VEC3"
    },
    {
      "bufferView": 2,
      "byteOffset": 7788,
      "componentType": 5126,
      "count": 649,
      "max": [
        1.0,
        0.9999913573265076,
        1.0
      ],
      "min": [
        -1.0,
        -0.9999298453330994,
        -1.0
      ],
      "type": "VEC3"
    },
    {
      "bufferView": 1,
      "componentType": 5126,
      "count": 649,
      "max": [
        0.875,
        1.0
      ],
      "min": [
        0.14532232284545898,
        0.0
      ],
      "type": "VEC2"
    },
    {
      "bufferView": 1,
      "byteOffset": 5192,
      "componentType": 5126,
      "count": 649,
      "max": [
        0.9337582588195801,
        0.9923418760299683
      ],
      "min": [
        0.4341546595096588,
        6.016747988724092e-08
      ],
      "type": "VEC2"
    },
    {
      "bufferView": 0,
      "componentType": 5125,
      "count": 2262,
      "type": "SCALAR"
    },
    {
      "bufferView": 2,
      "byteOffset": 15576,
      "componentType": 5126,
      "count": 127,
      "max": [
        0.45401954650878906,
        0.9382147789001465,
        0.05457775294780731
      ],
      "min": [
        -0.45401880145072937,
        -0.8636952638626099,
        -0.06324104964733124
      ],
      "type": "VEC3"
    },
    {
      "bufferView": 2,
      "byteOffset": 17100,
      "componentType": 5126,
      "count": 127,
      "max": [
        0.08701567351818085,
        0.07868621498346329,
        1.0
      ],
      "min": [
        -0.08737935125827789,
        -0.0787927657365799,
        -1.0
      ],
      "type": "VEC3"
    },
    {
      "bufferView": 1,
      "byteOffset": 10384,
      "componentType": 5126,
      "count": 127,
      "max": [
        0.8693071603775024,
        0.75
      ],
      "min": [
        0.16472434997558594,
        0.5080124139785767
      ],
      "type": "VEC2"
    },
    {
      "bufferView": 1,
      "byteOffset": 11400,
      "componentType": 5126,
      "count": 127,
      "max": [
        0.9120935201644897,
        0.9257717132568359
      ],
      "min": [
        0.4507032632827759,
        0.018051108345389366
      ],
      "type": "VEC2"
    },
    {
      "bufferView": 0,
      "byteOffset": 9048,
      "componentType": 5125,
      "count": 462,
      "type": "SCALAR"
    },
    {
      "bufferView": 2,
      "byteOffset": 18624,
      "componentType": 5126,
      "count": 838,
      "max": [
        0.4919823706150055,
        0.9782414436340332,
        -0.044607460498809814
      ],
      "min": [
        -0.4919823706150055,
        -0.9782414436340332,
        -0.06324107199907303
      ],
      "type": "VEC3"
    },
    {
      "bufferView": 2,
      "byteOffset": 28680,
      "componentType": 5126,
      "count": 838,
      "max": [
        1.0,
        1.0,
        0.0
      ],
      "min": [
        -1.0,
        -1.0,
        -1.0
      ],
      "type": "VEC3"
    },
    {
      "bufferView": 1,
      "byteOffset": 12416,
      "componentType": 5126,
      "count": 838,
      "max": [
        0.3974997401237488,
        1.0
      ],
      "min": [
        0.125,
        0.0
      ],
      "type": "VEC2"
    },
    {
      "bufferView": 1,
      "byteOffset": 19120,
      "componentType": 5126,
      "count": 838,
      "max": [
        0.6965398788452148,
        0.9812078475952148
      ],
      "min": [
        0.0,
        0.0
      ],
      "type": "VEC2"
    },
    {
      "bufferView": 0,
      "byteOffset": 10896,
      "componentType": 5125,
      "count": 2211,
      "type": "SCALAR"
    },
    {
      "bufferView": 2,
      "byteOffset": 38736,
      "componentType": 5126,
      "count": 1566,
      "max": [
        0.5142410397529602,
        0.9895385503768921,
        0.04655935615301132
      ],
      "min": [
        -0.5042619109153748,
        -0.9897655248641968,
        -0.05206573009490967
      ],
      "type": "VEC3"
    },
    {
      "bufferView": 2,
      "byteOffset": 57528,
      "componentType": 5126,
      "count": 1566,
      "max": [
        1.0,
        1.0,
        1.0
      ],
      "min": [
        -1.0,
        -1.0,
        -1.0
      ],
      "type": "VEC3"
    },
    {
      "bufferView": 1,
      "byteOffset": 25824,
      "componentType": 5126,
      "count": 1566,
      "max": [
        0.6069853901863098,
        1.0
      ],
      "min": [
        0.3348267078399658,
        -0.002866253722459078
      ],
      "type": "VEC2"
    },
    {
      "bufferView": 1,
      "byteOffset": 38352,
      "componentType": 5126,
      "count": 1566,
      "max": [
        1.0,
        1.0
      ],
      "min": [
        5.149259507675197e-08,
        2.280541444577011e-08
      ],
      "type": "VEC2"
    },
    {
      "bufferView": 0,
      "byteOffset": 19740,
      "componentType": 5125,
      "count": 5541,
      "type": "SCALAR"
    },
    {
      "bufferView": 2,
      "byteOffset": 76320,
      "componentType": 5126,
      "count": 25,
      "max": [
        0.37859535217285156,
        0.5763693451881409,
        -0.05217719078063965
      ],
      "min": [
        0.3344132602214813,
        0.532187283039093,
        -0.056552838534116745
      ],
      "type": "VEC3"
    },
    {
      "bufferView": 2,
      "byteOffset": 76620,
      "componentType": 5126,
      "count": 25,
      "max": [
        0.15118540823459625,
        0.15118497610092163,
        -0.9829386472702026
      ],
      "min": [
        -0.15118509531021118,
        -0.15118460357189178,
        -1.0
      ],
      "type": "VEC3"
    },
    {
      "bufferView": 1,
      "byteOffset": 50880,
      "componentType": 5126,
      "count": 25,
      "max": [
        0.20090675354003906,
        0.648404598236084
      ],
      "min": [
        0.1663672924041748,
        0.6334958672523499
      ],
      "type": "VEC2"
    },
    {
      "bufferView": 1,
      "byteOffset": 51080,
      "componentType": 5126,
      "count": 25,
      "max": [
        0.911152184009552,
        0.9748669862747192
      ],
      "min": [
        0.8918982744216919,
        0.9549095034599304
      ],
      "type": "VEC2"
    },
    {
      "bufferView": 0,
      "byteOffset": 41904,
      "componentType": 5125,
      "count": 96,
      "type": "SCALAR"
    }
  ],
  "asset": {
    "extras": {
      "author": "pricrich (https://sketchfab.com/pricrich681)",
      "license": "CC-BY-4.0 (http://creativecommons.org/licenses/by/4.0/)",
      "source": "https://sketchfab.com/3d-models/moto-e-2020-smartphone-737df53dc18e439ca94540926ab0bea9",
      "title": "Moto E 2020 smartphone"
    },
    "generator": "Sketchfab-16.16.0",
    "version": "2.0"
  },
  "bufferViews": [
    {
      "buffer": 0,
      "byteLength": 42288,
      "name": "floatBufferViews",
      "target": 34963
    },
    {
      "buffer": 0,
      "byteLength": 51280,
      "byteOffset": 42288,
      "byteStride": 8,
      "name": "floatBufferViews",
      "target": 34962
    },
    {
      "buffer": 0,
      "byteLength": 76920,
      "byteOffset": 93568,
      "byteStride": 12,
      "name": "floatBufferViews",
      "target": 34962
    }
  ],
  "buffers": [
    {
      "byteLength": 170488,
      "uri": "scene.bin"
    }
  ],
  "extensionsUsed": [
    "KHR_materials_specular"
  ],
  "materials": [
    {
      "doubleSided": true,
      "extensions": {
        "KHR_materials_specular": {
          "specularColorFactor": [
            1.0,
            1.0,
            1.0
          ],
          "specularFactor": 0.1386670892711292
        }
      },
      "name": "Window_Glass_Cycle.001",
      "pbrMetallicRoughness": {
        "baseColorFactor": [
          0.0,
          0.0,
          0.0,
          1.0
        ],
        "metallicFactor": 0.35809632943643255,
        "roughnessFactor": 0.0
      }
    },
    {
      "doubleSided": true,
      "name": "PHONE_screen.001",
      "pbrMetallicRoughness": {
        "baseColorFactor": [
          0.0,
          0.0,
          0.0,
          1.0
        ],
        "metallicFactor": 0.6750496763418707,
        "roughnessFactor": 0.0
      }
    },
    {
      "doubleSided": true,
      "extensions": {
        "KHR_materials_specular": {
          "specularColorFactor": [
            1.0,
            1.0,
            1.0
          ],
          "specularFactor": 1.0
        }
      },
      "name": "Pointiness_Metal.001",
      "pbrMetallicRoughness": {
        "baseColorFactor": [
          0.01880128032235911,
          0.19495346949744216,
          0.5259747095201842,
          1.0
        ],
        "metallicFactor": 0.5470492862454438,
        "roughnessFactor": 0.0750448001365338
      }
    },
    {
      "doubleSided": true,
      "extensions": {
        "KHR_materials_specular": {
          "specularColorFactor": [
            1.0,
            1.0,
            1.0
          ],
          "specularFactor": 1.0
        }
      },
      "name": "Blue_Car_Paint.001",
      "pbrMetallicRoughness": {
        "baseColorFactor": [
          0.048984527760389834,
          0.25532957896604175,
          0.5054543983643133,
          1.0
        ],
        "metallicFactor": 0.3946678694639831,
        "roughnessFactor": 0.48342699711084836
      }
    },
    {
      "doubleSided": true,
      "extensions": {
        "KHR_materials_specular": {
          "specularColorFactor": [
            1.0,
            1.0,
            1.0
          ],
          "specularFactor": 1.0
        }
      },
      "name": "Gray_white_plastic.001",
      "pbrMetallicRoughness": {
        "baseColorFactor": [
          0.8,
          0.8,
          0.8,
          1.0
        ],
        "roughnessFactor": 0.0
      }
    }
  ],
  "meshes": [
    {
      "name": "Phone_Window Glass Cycle.001_0",
      "primitives": [
        {
          "attributes": {
            "NORMAL": 1,
            "POSITION": 0,
            "TEXCOORD_0": 2,
            "TEXCOORD_1": 3
          },
          "indices": 4,
          "material": 0,
          "mode": 4
        }
      ]
    },
    {
      "name": "Phone_PHONE screen.001_0",
      "primitives": [
        {
          "attributes": {
            "NORMAL": 6,
            "POSITION": 5,
            "TEXCOORD_0": 7,
            "TEXCOORD_1": 8
          },
          "indices": 9,
          "material": 1,
          "mode": 4
        }
      ]
    },
    {
      "name": "Phone_Pointiness Metal.001_0",
      "primitives": [
        {
          "attributes": {
            "NORMAL": 11,
            "POSITION": 10,
            "TEXCOORD_0": 12,
            "TEXCOORD_1": 13
          },
          "indices": 14,
          "material": 2,
          "mode": 4
        }
      ]
    },
    {
      "name": "Phone_Blue Car Paint.001_0",
      "primitives": [
        {
          "attributes": {
            "NORMAL": 16,
            "POSITION": 15,
            "TEXCOORD_0": 17,
            "TEXCOORD_1": 18
          },
          "indices": 19,
          "material": 3,
          "mode": 4
        }
      ]
    },
    {
      "name": "Phone_Gray white plastic.001_0",
      "primitives": [
        {
          "attributes": {
            "NORMAL": 21,
            "POSITION": 20,
            "TEXCOORD_0": 22,
            "TEXCOORD_1": 23
          },
          "indices": 24,
          "material": 4,
          "mode": 4
        }
      ]
    }
  ],
  "nodes": [
    {
      "children": [
        1
      ],
      "matrix": [
        1.0,
        0.0,
        0.0,
        0.0,
        0.0,
        2.220446049250313e-16,
        -1.0,
        0.0,
        0.0,
        1.0,
        2.220446049250313e-16,
        0.0,
        0.0,
        0.0,
        0.0,
        1.0
      ],
      "name": "Sketchfab_model"
    },
    {
      "children": [
        2
      ],
      "matrix": [
        0.009999999776482582,
        0.0,
        0.0,
        0.0,
        0.0,
        0.0,
        0.009999999776482582,
        0.0,
        0.0,
        -0.009999999776482582,
        0.0,
        0.0,
        0.0,
        0.0,
        0.0,
        1.0
      ],
      "name": "8b8f74ce6e1641a49d97a1e8421e1c45.fbx"
    },
    {
      "children": [
        3
      ],
      "name": "RootNode"
    },
    {
      "children": [
        4,
        5,
        6,
        7,
        8
      ],
      "matrix": [
        100.0,
        0.0,
        0.0,
        0.0,
        0.0,
        106.31208801269521,
        4.647048958696781e-06,
        0.0,
        0.0,
        -4.371138828673792e-06,
        99.9999999999999,
        0.0,
        0.0,
        0.0,
        0.0,
        1.0
      ],
      "name": "Phone"
    },
    {
      "mesh": 0,
      "name": "Phone_Window Glass Cycle.001_0"
    },
    {
      "mesh": 1,
      "name": "Phone_PHONE screen.001_0"
    },
    {
      "mesh": 2,
      "name": "Phone_Pointiness Metal.001_0"
    },
    {
      "mesh": 3,
      "name": "Phone_Blue Car Paint.001_0"
    },
    {
      "mesh": 4,
      "name": "Phone_Gray white plastic.001_0"
    }
  ],
  "scene": 0,
  "scenes": [
    {
      "name": "Sketchfab_Scene",
      "nodes": [
        0
      ]
    }
  ]
}
